<mxfile host="app.diagrams.net" modified="2020-12-21T04:06:12.428Z" agent="5.0 (Windows NT 10.0; Win64; x64) AppleWebKit/537.36 (KHTML, like Gecko) Chrome/87.0.4280.88 Safari/537.36" etag="UUIF01OrJATsKsS8Zj3u" version="14.1.1" type="github">
  <diagram id="BWxFpB5nZAlgvFdPM-t_" name="Page-1">
    <mxGraphModel dx="885" dy="533" grid="1" gridSize="10" guides="1" tooltips="1" connect="1" arrows="1" fold="1" page="1" pageScale="1" pageWidth="827" pageHeight="1169" math="0" shadow="0">
      <root>
        <mxCell id="0" />
        <mxCell id="1" parent="0" />
        <mxCell id="mh8AI9bPNSoJdGmhaGVJ-1" value="GameMain" style="swimlane;fontStyle=1;align=center;verticalAlign=top;childLayout=stackLayout;horizontal=1;startSize=26;horizontalStack=0;resizeParent=1;resizeParentMax=0;resizeLast=0;collapsible=1;marginBottom=0;fillColor=#21C0A5;strokeColor=#006658;fontColor=#5C5C5C;rounded=1;" vertex="1" parent="1">
          <mxGeometry x="430" y="10" width="160" height="86" as="geometry" />
        </mxCell>
        <mxCell id="mh8AI9bPNSoJdGmhaGVJ-2" value="+ stage: Stage" style="text;strokeColor=none;fillColor=none;align=left;verticalAlign=top;spacingLeft=4;spacingRight=4;overflow=hidden;rotatable=0;points=[[0,0.5],[1,0.5]];portConstraint=eastwest;fontColor=#5C5C5C;rounded=1;" vertex="1" parent="mh8AI9bPNSoJdGmhaGVJ-1">
          <mxGeometry y="26" width="160" height="26" as="geometry" />
        </mxCell>
        <mxCell id="mh8AI9bPNSoJdGmhaGVJ-3" value="" style="line;strokeWidth=1;fillColor=none;align=left;verticalAlign=middle;spacingTop=-1;spacingLeft=3;spacingRight=3;rotatable=0;labelPosition=right;points=[];portConstraint=eastwest;strokeColor=#006658;fontColor=#5C5C5C;rounded=1;" vertex="1" parent="mh8AI9bPNSoJdGmhaGVJ-1">
          <mxGeometry y="52" width="160" height="8" as="geometry" />
        </mxCell>
        <mxCell id="mh8AI9bPNSoJdGmhaGVJ-4" value="+ main(string[] args): void" style="text;strokeColor=none;fillColor=none;align=left;verticalAlign=top;spacingLeft=4;spacingRight=4;overflow=hidden;rotatable=0;points=[[0,0.5],[1,0.5]];portConstraint=eastwest;fontColor=#5C5C5C;rounded=1;" vertex="1" parent="mh8AI9bPNSoJdGmhaGVJ-1">
          <mxGeometry y="60" width="160" height="26" as="geometry" />
        </mxCell>
        <mxCell id="mh8AI9bPNSoJdGmhaGVJ-5" value="Stage_Lobby" style="swimlane;fontStyle=1;align=center;verticalAlign=top;childLayout=stackLayout;horizontal=1;startSize=26;horizontalStack=0;resizeParent=1;resizeParentMax=0;resizeLast=0;collapsible=1;marginBottom=0;fillColor=#21C0A5;strokeColor=#006658;fontColor=#5C5C5C;rounded=1;" vertex="1" parent="1">
          <mxGeometry x="80" y="270" width="160" height="60" as="geometry" />
        </mxCell>
        <mxCell id="mh8AI9bPNSoJdGmhaGVJ-7" value="" style="line;strokeWidth=1;fillColor=none;align=left;verticalAlign=middle;spacingTop=-1;spacingLeft=3;spacingRight=3;rotatable=0;labelPosition=right;points=[];portConstraint=eastwest;strokeColor=#006658;fontColor=#5C5C5C;rounded=1;" vertex="1" parent="mh8AI9bPNSoJdGmhaGVJ-5">
          <mxGeometry y="26" width="160" height="8" as="geometry" />
        </mxCell>
        <mxCell id="mh8AI9bPNSoJdGmhaGVJ-8" value="+ main(): void" style="text;strokeColor=none;fillColor=none;align=left;verticalAlign=top;spacingLeft=4;spacingRight=4;overflow=hidden;rotatable=0;points=[[0,0.5],[1,0.5]];portConstraint=eastwest;fontColor=#5C5C5C;rounded=1;" vertex="1" parent="mh8AI9bPNSoJdGmhaGVJ-5">
          <mxGeometry y="34" width="160" height="26" as="geometry" />
        </mxCell>
        <mxCell id="mh8AI9bPNSoJdGmhaGVJ-9" value="Stage" style="swimlane;fontStyle=1;align=center;verticalAlign=top;childLayout=stackLayout;horizontal=1;startSize=26;horizontalStack=0;resizeParent=1;resizeParentMax=0;resizeLast=0;collapsible=1;marginBottom=0;fillColor=#21C0A5;strokeColor=#006658;fontColor=#5C5C5C;rounded=1;arcSize=0;" vertex="1" parent="1">
          <mxGeometry x="262" y="130" width="160" height="60" as="geometry" />
        </mxCell>
        <mxCell id="mh8AI9bPNSoJdGmhaGVJ-10" value="" style="line;strokeWidth=1;fillColor=none;align=left;verticalAlign=middle;spacingTop=-1;spacingLeft=3;spacingRight=3;rotatable=0;labelPosition=right;points=[];portConstraint=eastwest;strokeColor=#006658;fontColor=#5C5C5C;rounded=1;" vertex="1" parent="mh8AI9bPNSoJdGmhaGVJ-9">
          <mxGeometry y="26" width="160" height="8" as="geometry" />
        </mxCell>
        <mxCell id="mh8AI9bPNSoJdGmhaGVJ-11" value="+ main(): void" style="text;strokeColor=none;fillColor=none;align=left;verticalAlign=top;spacingLeft=4;spacingRight=4;overflow=hidden;rotatable=0;points=[[0,0.5],[1,0.5]];portConstraint=eastwest;fontColor=#5C5C5C;rounded=1;" vertex="1" parent="mh8AI9bPNSoJdGmhaGVJ-9">
          <mxGeometry y="34" width="160" height="26" as="geometry" />
        </mxCell>
        <mxCell id="mh8AI9bPNSoJdGmhaGVJ-13" value="Stage_Battle" style="swimlane;fontStyle=1;align=center;verticalAlign=top;childLayout=stackLayout;horizontal=1;startSize=26;horizontalStack=0;resizeParent=1;resizeParentMax=0;resizeLast=0;collapsible=1;marginBottom=0;fillColor=#21C0A5;strokeColor=#006658;fontColor=#5C5C5C;rounded=1;" vertex="1" parent="1">
          <mxGeometry x="254" y="270" width="176" height="138" as="geometry" />
        </mxCell>
        <mxCell id="mh8AI9bPNSoJdGmhaGVJ-14" value="+ monsters: Monster[]" style="text;strokeColor=none;fillColor=none;align=left;verticalAlign=top;spacingLeft=4;spacingRight=4;overflow=hidden;rotatable=0;points=[[0,0.5],[1,0.5]];portConstraint=eastwest;fontColor=#5C5C5C;rounded=1;" vertex="1" parent="mh8AI9bPNSoJdGmhaGVJ-13">
          <mxGeometry y="26" width="176" height="26" as="geometry" />
        </mxCell>
        <mxCell id="mh8AI9bPNSoJdGmhaGVJ-17" value="+ environments: StatusEffect[]" style="text;strokeColor=none;fillColor=none;align=left;verticalAlign=top;spacingLeft=4;spacingRight=4;overflow=hidden;rotatable=0;points=[[0,0.5],[1,0.5]];portConstraint=eastwest;fontColor=#5C5C5C;rounded=1;" vertex="1" parent="mh8AI9bPNSoJdGmhaGVJ-13">
          <mxGeometry y="52" width="176" height="26" as="geometry" />
        </mxCell>
        <mxCell id="mh8AI9bPNSoJdGmhaGVJ-15" value="" style="line;strokeWidth=1;fillColor=none;align=left;verticalAlign=middle;spacingTop=-1;spacingLeft=3;spacingRight=3;rotatable=0;labelPosition=right;points=[];portConstraint=eastwest;strokeColor=#006658;fontColor=#5C5C5C;rounded=1;" vertex="1" parent="mh8AI9bPNSoJdGmhaGVJ-13">
          <mxGeometry y="78" width="176" height="8" as="geometry" />
        </mxCell>
        <mxCell id="mh8AI9bPNSoJdGmhaGVJ-16" value="+ main(): void" style="text;strokeColor=none;fillColor=none;align=left;verticalAlign=top;spacingLeft=4;spacingRight=4;overflow=hidden;rotatable=0;points=[[0,0.5],[1,0.5]];portConstraint=eastwest;fontColor=#5C5C5C;rounded=1;" vertex="1" parent="mh8AI9bPNSoJdGmhaGVJ-13">
          <mxGeometry y="86" width="176" height="26" as="geometry" />
        </mxCell>
        <mxCell id="mh8AI9bPNSoJdGmhaGVJ-18" value="+ initialize(): void" style="text;strokeColor=none;fillColor=none;align=left;verticalAlign=top;spacingLeft=4;spacingRight=4;overflow=hidden;rotatable=0;points=[[0,0.5],[1,0.5]];portConstraint=eastwest;fontColor=#5C5C5C;rounded=1;" vertex="1" parent="mh8AI9bPNSoJdGmhaGVJ-13">
          <mxGeometry y="112" width="176" height="26" as="geometry" />
        </mxCell>
        <mxCell id="mh8AI9bPNSoJdGmhaGVJ-19" value="" style="endArrow=block;endSize=16;endFill=0;html=1;exitX=0.5;exitY=0;exitDx=0;exitDy=0;strokeColor=#006658;fontColor=#5C5C5C;edgeStyle=orthogonalEdgeStyle;" edge="1" parent="1" source="mh8AI9bPNSoJdGmhaGVJ-5" target="mh8AI9bPNSoJdGmhaGVJ-9">
          <mxGeometry width="160" relative="1" as="geometry">
            <mxPoint x="350" y="340" as="sourcePoint" />
            <mxPoint x="510" y="340" as="targetPoint" />
          </mxGeometry>
        </mxCell>
        <mxCell id="mh8AI9bPNSoJdGmhaGVJ-20" value="" style="endArrow=block;endSize=16;endFill=0;html=1;exitX=0.5;exitY=0;exitDx=0;exitDy=0;edgeStyle=orthogonalEdgeStyle;strokeColor=#006658;fontColor=#5C5C5C;" edge="1" parent="1" source="mh8AI9bPNSoJdGmhaGVJ-13" target="mh8AI9bPNSoJdGmhaGVJ-9">
          <mxGeometry width="160" relative="1" as="geometry">
            <mxPoint x="170" y="230" as="sourcePoint" />
            <mxPoint x="160" y="190" as="targetPoint" />
          </mxGeometry>
        </mxCell>
        <mxCell id="mh8AI9bPNSoJdGmhaGVJ-22" value="Stage_GameOver" style="swimlane;fontStyle=1;align=center;verticalAlign=top;childLayout=stackLayout;horizontal=1;startSize=26;horizontalStack=0;resizeParent=1;resizeParentMax=0;resizeLast=0;collapsible=1;marginBottom=0;fillColor=#21C0A5;strokeColor=#006658;fontColor=#5C5C5C;rounded=1;" vertex="1" parent="1">
          <mxGeometry x="450" y="270" width="160" height="60" as="geometry" />
        </mxCell>
        <mxCell id="mh8AI9bPNSoJdGmhaGVJ-23" value="" style="line;strokeWidth=1;fillColor=none;align=left;verticalAlign=middle;spacingTop=-1;spacingLeft=3;spacingRight=3;rotatable=0;labelPosition=right;points=[];portConstraint=eastwest;strokeColor=#006658;fontColor=#5C5C5C;rounded=1;" vertex="1" parent="mh8AI9bPNSoJdGmhaGVJ-22">
          <mxGeometry y="26" width="160" height="8" as="geometry" />
        </mxCell>
        <mxCell id="mh8AI9bPNSoJdGmhaGVJ-24" value="+ main(): void" style="text;strokeColor=none;fillColor=none;align=left;verticalAlign=top;spacingLeft=4;spacingRight=4;overflow=hidden;rotatable=0;points=[[0,0.5],[1,0.5]];portConstraint=eastwest;fontColor=#5C5C5C;rounded=1;" vertex="1" parent="mh8AI9bPNSoJdGmhaGVJ-22">
          <mxGeometry y="34" width="160" height="26" as="geometry" />
        </mxCell>
        <mxCell id="mh8AI9bPNSoJdGmhaGVJ-26" value="Data" style="swimlane;fontStyle=1;align=center;verticalAlign=top;childLayout=stackLayout;horizontal=1;startSize=26;horizontalStack=0;resizeParent=1;resizeParentMax=0;resizeLast=0;collapsible=1;marginBottom=0;fillColor=#21C0A5;strokeColor=#006658;fontColor=#5C5C5C;rounded=1;" vertex="1" parent="1">
          <mxGeometry x="1067" y="130" width="230" height="164" as="geometry" />
        </mxCell>
        <mxCell id="mh8AI9bPNSoJdGmhaGVJ-29" value="+ hp: int&#xa;" style="text;strokeColor=none;fillColor=none;align=left;verticalAlign=top;spacingLeft=4;spacingRight=4;overflow=hidden;rotatable=0;points=[[0,0.5],[1,0.5]];portConstraint=eastwest;rounded=1;fontColor=#5C5C5C;" vertex="1" parent="mh8AI9bPNSoJdGmhaGVJ-26">
          <mxGeometry y="26" width="230" height="26" as="geometry" />
        </mxCell>
        <mxCell id="mh8AI9bPNSoJdGmhaGVJ-36" value="+ armor: int&#xa;" style="text;strokeColor=none;fillColor=none;align=left;verticalAlign=top;spacingLeft=4;spacingRight=4;overflow=hidden;rotatable=0;points=[[0,0.5],[1,0.5]];portConstraint=eastwest;rounded=1;fontColor=#5C5C5C;" vertex="1" parent="mh8AI9bPNSoJdGmhaGVJ-26">
          <mxGeometry y="52" width="230" height="26" as="geometry" />
        </mxCell>
        <mxCell id="mh8AI9bPNSoJdGmhaGVJ-37" value="+ damage: int&#xa;" style="text;strokeColor=none;fillColor=none;align=left;verticalAlign=top;spacingLeft=4;spacingRight=4;overflow=hidden;rotatable=0;points=[[0,0.5],[1,0.5]];portConstraint=eastwest;rounded=1;fontColor=#5C5C5C;" vertex="1" parent="mh8AI9bPNSoJdGmhaGVJ-26">
          <mxGeometry y="78" width="230" height="26" as="geometry" />
        </mxCell>
        <mxCell id="mh8AI9bPNSoJdGmhaGVJ-35" value="+ name: String&#xa;" style="text;strokeColor=none;fillColor=none;align=left;verticalAlign=top;spacingLeft=4;spacingRight=4;overflow=hidden;rotatable=0;points=[[0,0.5],[1,0.5]];portConstraint=eastwest;rounded=1;fontColor=#5C5C5C;" vertex="1" parent="mh8AI9bPNSoJdGmhaGVJ-26">
          <mxGeometry y="104" width="230" height="26" as="geometry" />
        </mxCell>
        <mxCell id="mh8AI9bPNSoJdGmhaGVJ-27" value="" style="line;strokeWidth=1;fillColor=none;align=left;verticalAlign=middle;spacingTop=-1;spacingLeft=3;spacingRight=3;rotatable=0;labelPosition=right;points=[];portConstraint=eastwest;strokeColor=#006658;fontColor=#5C5C5C;rounded=1;" vertex="1" parent="mh8AI9bPNSoJdGmhaGVJ-26">
          <mxGeometry y="130" width="230" height="8" as="geometry" />
        </mxCell>
        <mxCell id="mh8AI9bPNSoJdGmhaGVJ-28" value="+ getHp,getArmor,getDamage: int" style="text;strokeColor=none;fillColor=none;align=left;verticalAlign=top;spacingLeft=4;spacingRight=4;overflow=hidden;rotatable=0;points=[[0,0.5],[1,0.5]];portConstraint=eastwest;fontColor=#5C5C5C;rounded=1;" vertex="1" parent="mh8AI9bPNSoJdGmhaGVJ-26">
          <mxGeometry y="138" width="230" height="26" as="geometry" />
        </mxCell>
        <mxCell id="mh8AI9bPNSoJdGmhaGVJ-30" value="Character" style="swimlane;fontStyle=1;align=center;verticalAlign=top;childLayout=stackLayout;horizontal=1;startSize=26;horizontalStack=0;resizeParent=1;resizeParentMax=0;resizeLast=0;collapsible=1;marginBottom=0;fillColor=#21C0A5;strokeColor=#006658;fontColor=#5C5C5C;rounded=1;" vertex="1" parent="1">
          <mxGeometry x="827" y="130" width="180" height="138" as="geometry" />
        </mxCell>
        <mxCell id="mh8AI9bPNSoJdGmhaGVJ-31" value="+ data: Data" style="text;strokeColor=none;fillColor=none;align=left;verticalAlign=top;spacingLeft=4;spacingRight=4;overflow=hidden;rotatable=0;points=[[0,0.5],[1,0.5]];portConstraint=eastwest;rounded=1;fontColor=#5C5C5C;" vertex="1" parent="mh8AI9bPNSoJdGmhaGVJ-30">
          <mxGeometry y="26" width="180" height="26" as="geometry" />
        </mxCell>
        <mxCell id="mh8AI9bPNSoJdGmhaGVJ-39" value="+ hp: int" style="text;strokeColor=none;fillColor=none;align=left;verticalAlign=top;spacingLeft=4;spacingRight=4;overflow=hidden;rotatable=0;points=[[0,0.5],[1,0.5]];portConstraint=eastwest;rounded=1;fontColor=#5C5C5C;" vertex="1" parent="mh8AI9bPNSoJdGmhaGVJ-30">
          <mxGeometry y="52" width="180" height="26" as="geometry" />
        </mxCell>
        <mxCell id="mh8AI9bPNSoJdGmhaGVJ-40" value="+ statusEffects: StatusEffect[]" style="text;strokeColor=none;fillColor=none;align=left;verticalAlign=top;spacingLeft=4;spacingRight=4;overflow=hidden;rotatable=0;points=[[0,0.5],[1,0.5]];portConstraint=eastwest;rounded=1;fontColor=#5C5C5C;" vertex="1" parent="mh8AI9bPNSoJdGmhaGVJ-30">
          <mxGeometry y="78" width="180" height="26" as="geometry" />
        </mxCell>
        <mxCell id="mh8AI9bPNSoJdGmhaGVJ-32" value="" style="line;strokeWidth=1;fillColor=none;align=left;verticalAlign=middle;spacingTop=-1;spacingLeft=3;spacingRight=3;rotatable=0;labelPosition=right;points=[];portConstraint=eastwest;strokeColor=#006658;fontColor=#5C5C5C;rounded=1;" vertex="1" parent="mh8AI9bPNSoJdGmhaGVJ-30">
          <mxGeometry y="104" width="180" height="8" as="geometry" />
        </mxCell>
        <mxCell id="mh8AI9bPNSoJdGmhaGVJ-33" value="+ main(): void" style="text;strokeColor=none;fillColor=none;align=left;verticalAlign=top;spacingLeft=4;spacingRight=4;overflow=hidden;rotatable=0;points=[[0,0.5],[1,0.5]];portConstraint=eastwest;fontColor=#5C5C5C;rounded=1;" vertex="1" parent="mh8AI9bPNSoJdGmhaGVJ-30">
          <mxGeometry y="112" width="180" height="26" as="geometry" />
        </mxCell>
        <mxCell id="mh8AI9bPNSoJdGmhaGVJ-34" value="" style="endArrow=open;startArrow=circlePlus;endFill=0;startFill=0;endSize=8;html=1;strokeColor=#006658;fillColor=#21C0A5;fontColor=#5C5C5C;entryX=1;entryY=0.5;entryDx=0;entryDy=0;exitX=0;exitY=0.5;exitDx=0;exitDy=0;" edge="1" parent="1" source="mh8AI9bPNSoJdGmhaGVJ-29" target="mh8AI9bPNSoJdGmhaGVJ-31">
          <mxGeometry width="160" relative="1" as="geometry">
            <mxPoint x="1047" y="200" as="sourcePoint" />
            <mxPoint x="1067" y="169" as="targetPoint" />
          </mxGeometry>
        </mxCell>
        <mxCell id="mh8AI9bPNSoJdGmhaGVJ-38" value="" style="endArrow=block;endSize=16;endFill=0;html=1;strokeColor=#006658;fontColor=#5C5C5C;edgeStyle=orthogonalEdgeStyle;exitX=0.5;exitY=0;exitDx=0;exitDy=0;" edge="1" parent="1" source="mh8AI9bPNSoJdGmhaGVJ-22" target="mh8AI9bPNSoJdGmhaGVJ-9">
          <mxGeometry width="160" relative="1" as="geometry">
            <mxPoint x="170" y="280" as="sourcePoint" />
            <mxPoint x="272" y="155" as="targetPoint" />
          </mxGeometry>
        </mxCell>
        <mxCell id="mh8AI9bPNSoJdGmhaGVJ-45" value="Player" style="swimlane;fontStyle=1;align=center;verticalAlign=top;childLayout=stackLayout;horizontal=1;startSize=26;horizontalStack=0;resizeParent=1;resizeParentMax=0;resizeLast=0;collapsible=1;marginBottom=0;fillColor=#21C0A5;strokeColor=#006658;fontColor=#5C5C5C;rounded=1;" vertex="1" parent="1">
          <mxGeometry x="680" y="340" width="180" height="190" as="geometry" />
        </mxCell>
        <mxCell id="mh8AI9bPNSoJdGmhaGVJ-46" value="+ data: Data" style="text;strokeColor=none;fillColor=none;align=left;verticalAlign=top;spacingLeft=4;spacingRight=4;overflow=hidden;rotatable=0;points=[[0,0.5],[1,0.5]];portConstraint=eastwest;rounded=1;fontColor=#5C5C5C;" vertex="1" parent="mh8AI9bPNSoJdGmhaGVJ-45">
          <mxGeometry y="26" width="180" height="26" as="geometry" />
        </mxCell>
        <mxCell id="mh8AI9bPNSoJdGmhaGVJ-51" value="+ level: int" style="text;strokeColor=none;fillColor=none;align=left;verticalAlign=top;spacingLeft=4;spacingRight=4;overflow=hidden;rotatable=0;points=[[0,0.5],[1,0.5]];portConstraint=eastwest;rounded=1;fontColor=#5C5C5C;" vertex="1" parent="mh8AI9bPNSoJdGmhaGVJ-45">
          <mxGeometry y="52" width="180" height="26" as="geometry" />
        </mxCell>
        <mxCell id="mh8AI9bPNSoJdGmhaGVJ-47" value="+ hp: int" style="text;strokeColor=none;fillColor=none;align=left;verticalAlign=top;spacingLeft=4;spacingRight=4;overflow=hidden;rotatable=0;points=[[0,0.5],[1,0.5]];portConstraint=eastwest;rounded=1;fontColor=#5C5C5C;" vertex="1" parent="mh8AI9bPNSoJdGmhaGVJ-45">
          <mxGeometry y="78" width="180" height="26" as="geometry" />
        </mxCell>
        <mxCell id="mh8AI9bPNSoJdGmhaGVJ-48" value="+ statusEffects: StatusEffect[]" style="text;strokeColor=none;fillColor=none;align=left;verticalAlign=top;spacingLeft=4;spacingRight=4;overflow=hidden;rotatable=0;points=[[0,0.5],[1,0.5]];portConstraint=eastwest;rounded=1;fontColor=#5C5C5C;" vertex="1" parent="mh8AI9bPNSoJdGmhaGVJ-45">
          <mxGeometry y="104" width="180" height="26" as="geometry" />
        </mxCell>
        <mxCell id="mh8AI9bPNSoJdGmhaGVJ-52" value="+ slots: Weapon[]" style="text;strokeColor=none;fillColor=none;align=left;verticalAlign=top;spacingLeft=4;spacingRight=4;overflow=hidden;rotatable=0;points=[[0,0.5],[1,0.5]];portConstraint=eastwest;rounded=1;fontColor=#5C5C5C;" vertex="1" parent="mh8AI9bPNSoJdGmhaGVJ-45">
          <mxGeometry y="130" width="180" height="26" as="geometry" />
        </mxCell>
        <mxCell id="mh8AI9bPNSoJdGmhaGVJ-49" value="" style="line;strokeWidth=1;fillColor=none;align=left;verticalAlign=middle;spacingTop=-1;spacingLeft=3;spacingRight=3;rotatable=0;labelPosition=right;points=[];portConstraint=eastwest;strokeColor=#006658;fontColor=#5C5C5C;rounded=1;" vertex="1" parent="mh8AI9bPNSoJdGmhaGVJ-45">
          <mxGeometry y="156" width="180" height="8" as="geometry" />
        </mxCell>
        <mxCell id="mh8AI9bPNSoJdGmhaGVJ-50" value="+ main(): void" style="text;strokeColor=none;fillColor=none;align=left;verticalAlign=top;spacingLeft=4;spacingRight=4;overflow=hidden;rotatable=0;points=[[0,0.5],[1,0.5]];portConstraint=eastwest;fontColor=#5C5C5C;rounded=1;" vertex="1" parent="mh8AI9bPNSoJdGmhaGVJ-45">
          <mxGeometry y="164" width="180" height="26" as="geometry" />
        </mxCell>
      </root>
    </mxGraphModel>
  </diagram>
</mxfile>
